# xmcd
# 
# Track frame offsets:
#     150
#     27457
#     46305
#     72850
#     98617
#     119710
#     128595
#     158585
# 
# Disc length: 2412
# 
# Revision: 0
# Processed by: cddbd v1.5.2PL0 Copyright (c) Steve Scherf et al.
# Submitted via: fre:ac v1.0.31
# 
DISCID=63096a08
DTITLE=中川五郎 - また恋をしてしまったぼく
DYEAR=1978
DGENRE=Folk
TTITLE0=十代から十年
TTITLE1=夜盗のように(Run Like a Thief)
TTITLE2=また恋をしてしまったぼく
TTITLE3=娘よ俺はおまえの親父だ
TTITLE4=かぎりなく
TTITLE5=動物たちの恐しい夢のなかに
TTITLE6=三十歳の子供
TTITLE7=ミー・アンド・ボビー・マギー(Me and Bobby McGee)
EXTD=
EXTT0=
EXTT1=
EXTT2=
EXTT3=
EXTT4=
EXTT5=
EXTT6=
EXTT7=
PLAYORDER=
